<svg width="19" height="19" viewBox="0 0 19 19" fill="none" xmlns="http://www.w3.org/2000/svg">
<g id="Add shopping cart" clip-path="url(#clip0_313_225)">
<path id="Vector" d="M9.10692 7.39352H10.5901V5.16875H12.8149V3.68558H10.5901V1.46082H9.10692V3.68558H6.88215V5.16875H9.10692V7.39352ZM6.14057 14.0678C5.32482 14.0678 4.66481 14.7352 4.66481 15.551C4.66481 16.3667 5.32482 17.0342 6.14057 17.0342C6.95631 17.0342 7.62374 16.3667 7.62374 15.551C7.62374 14.7352 6.95631 14.0678 6.14057 14.0678ZM13.5564 14.0678C12.7407 14.0678 12.0807 14.7352 12.0807 15.551C12.0807 16.3667 12.7407 17.0342 13.5564 17.0342C14.3722 17.0342 15.0396 16.3667 15.0396 15.551C15.0396 14.7352 14.3722 14.0678 13.5564 14.0678ZM6.26664 11.6576L6.28888 11.5687L6.95631 10.3599H12.4811C13.0373 10.3599 13.5268 10.0558 13.7789 9.59603L16.6414 4.3975L15.3511 3.68558H15.3437L14.5279 5.16875L12.4811 8.87669H7.2752L7.17879 8.67646L5.51763 5.16875L4.81312 3.68558L4.11603 2.2024H1.69104V3.68558H3.17422L5.84393 9.31423L4.84279 11.1311C4.72413 11.3388 4.65739 11.5835 4.65739 11.843C4.65739 12.6588 5.32482 13.3262 6.14057 13.3262H15.0396V11.843H6.45203C6.35563 11.843 6.26664 11.7615 6.26664 11.6576Z" fill="#C2FEFC"/>
</g>
<defs>
<clipPath id="clip0_313_225">
<rect width="17.7981" height="17.7981" fill="white" transform="translate(0.949463 0.719238)"/>
</clipPath>
</defs>
</svg>
